<svg xmlns="http://www.w3.org/2000/svg" viewBox="0 0 64 64" width="64" height="64">
  <!-- Balaclava silhouette, head-shaped -->
  <path fill="#39d353" d="
    M32 5
    C 19 5 10 15 10 28
    C 10 40 12 48 14 54
    C 15.5 58 18 60 22 60
    L 42 60
    C 46 60 48.5 58 50 54
    C 52 48 54 40 54 28
    C 54 15 45 5 32 5
    Z"/>
  <!-- Eye holes -->
  <ellipse cx="23" cy="27" rx="6.5" ry="4.2" fill="#0d1117" transform="rotate(-8 23 27)"/>
  <ellipse cx="41" cy="27" rx="6.5" ry="4.2" fill="#0d1117" transform="rotate(8 41 27)"/>
  <!-- Mouth hole -->
  <ellipse cx="32" cy="42" rx="5" ry="3.4" fill="#0d1117"/>
</svg>
